<?xml version="1.0" encoding="utf-8"?>
<!-- Generator: Adobe Illustrator 23.1.1, SVG Export Plug-In . SVG Version: 6.00 Build 0)  -->
<svg version="1.1" id="Vrstva_1" xmlns="http://www.w3.org/2000/svg" xmlns:xlink="http://www.w3.org/1999/xlink" x="0px" y="0px"
	 viewBox="0 0 1000 1000" style="enable-background:new 0 0 1000 1000;" xml:space="preserve">
<style type="text/css">
	.st0{fill:#CE6B27;}
	.st1{fill:#F7F176;}
</style>
<g>
	<circle class="st0" cx="500.04" cy="501.89" r="445"/>
	<g>
		<path class="st1" d="M591.24,653.87C737.44,501.27,704.07,232.04,516.7,52.51C501.52,37.96,485.79,24.47,469.62,12
			C213.87,27.7,11.31,240.09,11.31,499.8c0,50.45,7.65,99.12,21.84,144.91C216.61,786.98,456.59,794.39,591.24,653.87z"/>
	</g>
	<g>
		<path class="st1" d="M557.21,14.38c212.45,205.5,249.78,512.11,83.02,686.16c-137,142.99-369.28,152.17-566.7,38.07
			c83.68,149.14,243.33,249.93,426.52,249.93c269.92,0,488.73-218.81,488.73-488.73C988.78,249.22,800.19,42.69,557.21,14.38z"/>
	</g>
</g>
</svg>
